<?xml version="1.0" encoding="UTF-8"?> <!-- Generator: Adobe Illustrator 22.0.0, SVG Export Plug-In . SVG Version: 6.00 Build 0) --> <svg xmlns="http://www.w3.org/2000/svg" xmlns:xlink="http://www.w3.org/1999/xlink" x="0px" y="0px" width="61.92px" height="61.92px" viewBox="0 0 61.92 61.92" style="enable-background:new 0 0 61.92 61.92;" xml:space="preserve"> <style type="text/css"> .st0{fill:#BB191F;} </style> <g id="Layer_1"> </g> <g id="Isolation_Mode"> <path class="st0" d="M30.96,2.71c-15.6,0-28.25,12.65-28.25,28.25c0,15.6,12.65,28.25,28.25,28.25s28.25-12.65,28.25-28.25 C59.21,15.36,46.56,2.71,30.96,2.71z M51.13,21.24c-0.61,0.64-1.27,1.24-1.96,1.78c-0.1,0.08-0.2,0.17-0.31,0.23 c-0.12,0.08-0.16,0.18-0.15,0.32c0.02,0.33,0.04,0.67,0.03,1c-0.03,0.72-0.07,1.44-0.13,2.16c-0.06,0.64-0.15,1.28-0.25,1.91 c-0.07,0.45-0.18,0.89-0.28,1.33c-0.08,0.36-0.17,0.72-0.27,1.08c-0.11,0.4-0.24,0.8-0.37,1.19c-0.21,0.61-0.43,1.21-0.67,1.81 c-0.17,0.42-0.36,0.84-0.56,1.24c-0.32,0.63-0.64,1.26-1,1.86c-0.42,0.7-0.87,1.37-1.34,2.04c-0.55,0.78-1.16,1.5-1.8,2.2 c-0.8,0.87-1.66,1.7-2.6,2.42c-0.64,0.5-1.29,0.99-1.98,1.42c-0.73,0.46-1.49,0.89-2.26,1.27c-0.77,0.38-1.55,0.71-2.36,1.01 c-0.72,0.27-1.47,0.47-2.21,0.68c-0.42,0.12-0.85,0.23-1.28,0.3c-0.59,0.11-1.18,0.2-1.78,0.27c-0.61,0.07-1.23,0.15-1.85,0.17 c-0.93,0.03-1.86,0.04-2.79,0.03c-0.45-0.01-0.9-0.07-1.34-0.12c-0.49-0.06-0.98-0.11-1.47-0.19c-0.47-0.08-0.94-0.18-1.4-0.28 c-0.55-0.13-1.09-0.26-1.63-0.42c-0.59-0.18-1.17-0.38-1.74-0.6c-0.49-0.18-0.97-0.38-1.44-0.6c-0.51-0.24-1-0.5-1.5-0.77 c-0.44-0.24-0.86-0.5-1.29-0.75c-0.06-0.03-0.11-0.08-0.16-0.13c0.01-0.01,0.01-0.02,0.02-0.03c4.65,0.48,8.85-0.67,12.6-3.46 c0-0.02,0-0.03-0.01-0.05c-0.13-0.01-0.27-0.02-0.4-0.03c-1.18-0.11-2.31-0.42-3.36-0.99c-0.9-0.48-1.68-1.1-2.37-1.85 c-0.38-0.42-0.72-0.88-1.01-1.36c-0.31-0.52-0.56-1.07-0.76-1.64c-0.04-0.12,0-0.16,0.14-0.14c0.32,0.04,0.63,0.1,0.95,0.11 c0.42,0.02,0.84,0.01,1.26-0.02c0.28-0.01,0.57-0.06,0.85-0.1c0.16-0.02,0.31-0.07,0.47-0.12c-1.97-0.49-3.61-1.5-4.87-3.09 c-1.26-1.59-1.88-3.41-1.84-5.46c1.17,0.59,2.39,0.98,3.7,1.02c0.01-0.01,0.01-0.03,0.02-0.04c-0.08-0.06-0.16-0.13-0.25-0.19 c-0.71-0.54-1.32-1.17-1.83-1.89c-0.53-0.75-0.93-1.56-1.21-2.43c-0.33-1.04-0.45-2.1-0.37-3.18c0.04-0.56,0.16-1.11,0.29-1.66 c0.16-0.7,0.45-1.34,0.8-1.97c0.06-0.11,0.11-0.1,0.18-0.02c0.27,0.31,0.53,0.63,0.82,0.92c0.45,0.47,0.9,0.95,1.38,1.39 c0.59,0.54,1.21,1.06,1.84,1.56c0.94,0.74,1.93,1.4,2.98,1.95c0.78,0.41,1.57,0.8,2.37,1.16c0.59,0.26,1.2,0.47,1.81,0.67 c0.61,0.2,1.24,0.39,1.86,0.55c0.43,0.12,0.88,0.2,1.32,0.28c0.59,0.11,1.19,0.2,1.79,0.28c0.43,0.06,0.87,0.07,1.3,0.1 c0.17,0.01,0.18-0.01,0.15-0.17c-0.17-0.82-0.21-1.64-0.15-2.47c0.04-0.61,0.17-1.21,0.35-1.8c0.26-0.86,0.65-1.67,1.17-2.4 c0.49-0.71,1.09-1.33,1.77-1.87c0.62-0.48,1.29-0.88,2.01-1.17c0.45-0.18,0.93-0.31,1.41-0.44c0.77-0.21,1.57-0.26,2.36-0.22 c0.55,0.03,1.11,0.11,1.65,0.25c1.07,0.27,2.06,0.71,2.95,1.36c0.4,0.3,0.77,0.65,1.14,0.98c0.1,0.09,0.18,0.12,0.31,0.08 c0.48-0.13,0.96-0.23,1.43-0.37c0.43-0.13,0.85-0.29,1.27-0.45c0.4-0.15,0.79-0.31,1.17-0.5c0.43-0.21,0.85-0.44,1.27-0.67 c0.04-0.02,0.08-0.04,0.13-0.04c-0.28,0.98-0.75,1.85-1.37,2.65c-0.62,0.79-1.35,1.47-2.19,2.03c0.82-0.07,1.62-0.23,2.4-0.47 c0.77-0.24,1.53-0.51,2.34-0.79c-0.1,0.15-0.17,0.27-0.25,0.38C52.24,19.99,51.71,20.64,51.13,21.24z"></path> </g> </svg> 