<?xml version="1.0" encoding="UTF-8"?> <!-- Generator: Adobe Illustrator 22.0.0, SVG Export Plug-In . SVG Version: 6.00 Build 0) --> <svg xmlns="http://www.w3.org/2000/svg" xmlns:xlink="http://www.w3.org/1999/xlink" x="0px" y="0px" width="61.92px" height="61.92px" viewBox="0 0 61.92 61.92" style="enable-background:new 0 0 61.92 61.92;" xml:space="preserve"> <style type="text/css"> .st0{fill:#BB191F;} </style> <g id="Layer_1"> </g> <g id="Isolation_Mode"> <path class="st0" d="M30.96,2.71c-15.6,0-28.25,12.65-28.25,28.25c0,15.6,12.65,28.25,28.25,28.25s28.25-12.65,28.25-28.25 C59.21,15.36,46.56,2.71,30.96,2.71z M35.13,23.75c1.97,0,3.94,0,5.9,0c0.2,0,0.4,0,0.7,0c-0.29,2.46-0.57,4.83-0.85,7.23 C40.64,30.99,40.44,31,40.25,31c-1.67,0-3.35,0.02-5.02-0.01c-0.53-0.01-0.64,0.17-0.64,0.66c0.01,6.66,0.01,13.32,0.01,19.98 c0,0.89,0,0.9-0.9,0.9c-2.63,0-5.26-0.01-7.89,0.01c-0.51,0-0.66-0.15-0.65-0.66c0.02-6.73,0-13.47,0.02-20.2 c0-0.52-0.12-0.7-0.66-0.69c-1.29,0.04-2.58,0-3.86,0.02c-0.42,0.01-0.54-0.14-0.54-0.54c0.01-2.06,0.01-4.12,0-6.18 c0-0.43,0.16-0.56,0.58-0.56c1.32,0.02,2.65,0,3.97,0.02c0.38,0.01,0.51-0.11,0.51-0.5c-0.02-1.58-0.08-3.17,0.02-4.74 c0.07-1.24,0.23-2.5,0.57-3.68c0.8-2.77,2.81-4.33,5.54-4.95c1.17-0.27,2.39-0.41,3.6-0.45c2.08-0.07,4.16-0.01,6.24-0.03 c0.49-0.01,0.64,0.16,0.63,0.63c-0.02,2.02-0.02,4.05,0,6.07c0,0.48-0.16,0.64-0.64,0.64c-1.34-0.02-2.69,0-4.03,0.02 c-0.33,0.01-0.66,0.06-0.98,0.14c-0.93,0.24-1.46,0.85-1.49,1.81c-0.04,1.54-0.01,3.09-0.03,4.63 C34.58,23.77,34.84,23.75,35.13,23.75z"></path> </g> </svg> 